<?xml version="1.0" standalone="no"?>
<!DOCTYPE svg PUBLIC "-//W3C//DTD SVG 20010904//EN"
 "http://www.w3.org/TR/2001/REC-SVG-20010904/DTD/svg10.dtd">
<svg version="1.0" xmlns="http://www.w3.org/2000/svg"
 width="300.000000pt" height="300.000000pt" viewBox="0 0 300.000000 300.000000"
 preserveAspectRatio="xMidYMid meet">
<metadata>
Created by potrace 1.14, written by Peter Selinger 2001-2017
</metadata>
<g transform="translate(0.000000,300.000000) scale(0.100000,-0.100000)"
fill="#000000" stroke="none">
<path d="M321 2571 c-88 -67 -161 -125 -161 -129 0 -5 13 -33 28 -63 31 -60
251 -339 267 -339 6 0 33 18 60 40 66 53 65 52 105 80 19 13 37 27 40 30 3 3
21 17 40 30 69 47 72 54 48 118 -19 53 -61 116 -124 187 -14 17 -43 53 -64 80
-75 100 -55 103 -239 -34z"/>
<path d="M1415 2513 c-53 -10 -135 -51 -183 -92 -73 -62 -112 -139 -115 -229
-1 -37 2 -79 7 -94 l8 -28 -208 -2 -207 -3 -2 -42 c-1 -24 0 -43 2 -43 3 0 18
10 35 21 16 12 45 25 63 29 51 12 50 24 46 -387 -1 -53 -1 -53 -33 -53 -18 0
-48 9 -66 20 -18 11 -36 20 -40 20 -7 0 -9 -43 -3 -72 0 -5 93 -8 206 -8 l205
0 0 45 0 46 -29 -22 c-17 -12 -46 -22 -68 -23 l-38 -1 0 215 0 215 30 3 c20 2
44 -6 67 -22 36 -24 37 -24 43 -5 6 18 9 17 36 -13 16 -18 29 -36 29 -40 0 -4
27 -26 60 -49 72 -50 78 -77 25 -102 -45 -21 -67 -57 -70 -115 -7 -119 85
-191 230 -179 199 15 298 208 201 394 -15 31 -15 33 3 42 10 6 33 44 50 85 34
81 38 141 14 189 -15 29 -15 157 0 157 8 0 291 -226 347 -277 l25 -23 -28 0
c-36 0 -34 -12 7 -34 l35 -18 0 -101 c0 -98 -3 -117 -12 -66 -7 36 -55 110
-89 138 -59 47 -144 37 -188 -23 -63 -86 -62 -316 2 -379 43 -43 107 -44 202
-5 l80 33 -50 3 c-83 4 -92 9 -103 50 -5 20 -9 66 -9 101 1 54 5 68 25 89 19
18 30 22 51 17 61 -15 85 -66 88 -187 2 -76 0 -88 -16 -93 -9 -3 -25 -14 -34
-24 -17 -18 -13 -19 108 -20 69 0 126 3 126 7 0 4 -13 16 -30 25 -16 10 -31
24 -31 30 -1 7 -2 89 -3 184 -1 119 1 170 9 164 86 -65 155 -127 157 -140 0
-9 2 -20 3 -26 2 -5 3 -14 4 -19 0 -6 6 -5 13 2 14 14 48 16 48 4 0 -5 11 -15
25 -22 24 -13 25 -16 25 -123 l0 -110 -40 6 c-21 3 -53 15 -70 27 l-30 21 0
-45 0 -46 210 0 c116 0 210 3 210 8 0 4 -4 14 -10 22 -5 9 -5 19 1 27 20 24
-1 33 -29 13 -32 -24 -90 -42 -97 -30 -3 4 -7 26 -9 48 -3 35 0 44 20 57 31
20 31 58 1 82 -17 14 -22 29 -24 72 -1 38 -7 57 -18 63 -13 8 -11 14 15 46 33
40 39 82 15 102 -37 31 -138 -24 -165 -90 -7 -16 -14 -30 -17 -30 -7 0 -85 57
-120 87 -59 52 -77 63 -93 58 -8 -3 -5 4 8 14 30 26 28 31 -13 31 -25 0 -44 8
-60 24 -13 13 -52 46 -87 72 -65 50 -92 71 -112 89 -27 24 -212 172 -224 179
-8 5 -21 1 -33 -10 -16 -15 -19 -15 -19 -2 0 18 -65 59 -125 78 -39 13 -131
20 -170 13z m168 -283 c59 -65 15 -149 -86 -165 -70 -11 -147 42 -147 102 0
41 43 92 85 99 16 3 31 7 33 8 12 12 91 -19 115 -44z m657 -175 c0 -2 -10 -9
-22 -15 -22 -11 -22 -10 -4 4 21 17 26 19 26 11z m-616 -255 c5 -5 9 -24 9
-41 0 -59 -95 -105 -207 -101 -79 3 -103 43 -67 110 16 31 13 42 -11 42 -19 0
-20 2 -8 10 8 5 55 9 103 9 49 0 91 2 94 5 6 6 73 -20 87 -34z m-276 -24 c-7
-8 -15 -12 -17 -11 -5 6 10 25 20 25 5 0 4 -6 -3 -14z"/>
<path d="M187 2013 c-4 -3 -7 -121 -7 -261 l1 -254 172 4 c141 3 179 8 210 23
41 19 57 46 49 78 -6 23 -89 62 -152 71 -25 3 -61 9 -80 12 -50 9 -30 -7 22
-17 83 -17 92 -20 105 -31 23 -19 14 -28 -27 -28 -44 0 -104 21 -132 47 -20
18 -15 31 16 43 l21 9 -22 0 c-13 1 -23 7 -23 15 0 14 41 78 65 102 13 13 79
31 103 28 6 -1 19 -2 27 -3 9 0 19 -11 24 -23 12 -32 -11 -62 -65 -89 -25 -12
-43 -23 -41 -25 10 -10 104 35 140 67 38 33 41 39 43 97 4 108 -55 160 -153
134 -30 -8 -50 -9 -63 -2 -21 11 -223 14 -233 3z m193 -18 c-7 -9 -15 -13 -19
-10 -3 3 1 10 9 15 21 14 24 12 10 -5z m32 -27 c-8 -18 -17 -27 -19 -21 -5 15
14 53 27 53 4 0 1 -14 -8 -32z"/>
<path d="M398 1703 c7 -3 16 -2 19 1 4 3 -2 6 -13 5 -11 0 -14 -3 -6 -6z"/>
<path d="M687 1477 c2 -4 8 -5 13 -2 5 3 11 1 15 -5 3 -5 2 -10 -3 -10 -5 0
-18 -12 -28 -27 -16 -24 -18 -53 -20 -227 -1 -166 -4 -201 -18 -214 -14 -15
-18 -14 -38 5 -13 11 -39 28 -59 37 -44 20 -46 30 -43 172 2 67 9 118 22 158
l19 58 -43 -6 c-110 -13 -137 -81 -84 -214 47 -116 33 -158 -43 -132 -54 18
-73 59 -83 173 -9 109 -87 177 -201 177 -56 0 -61 -4 -39 -35 23 -34 36 -88
41 -166 11 -175 33 -235 104 -282 28 -20 39 -33 33 -40 -5 -7 -17 -44 -27 -84
-18 -69 -18 -73 -1 -92 36 -39 239 -99 296 -86 27 6 32 14 64 119 20 61 41
134 47 162 l12 50 140 -2 c123 -1 139 0 122 12 -11 8 -25 12 -33 9 -21 -8 -70
23 -87 55 -8 16 -18 46 -21 67 -9 56 -12 153 -4 148 4 -2 7 -23 8 -47 2 -37 5
-62 16 -103 12 -49 31 -86 51 -99 36 -23 37 -20 10 20 -14 20 -29 53 -35 73
-14 56 -21 171 -10 172 6 1 19 2 29 3 33 2 33 13 -1 12 -37 -1 -41 13 -27 88
11 58 41 95 82 98 15 1 27 5 27 9 0 3 -47 6 -104 5 -57 0 -102 -4 -99 -9z"/>
<path d="M900 1482 c0 -5 7 -9 15 -9 8 0 15 4 15 9 0 4 -7 8 -15 8 -8 0 -15
-4 -15 -8z"/>
<path d="M946 1480 c3 -3 15 -5 26 -5 26 0 31 -9 63 -117 26 -85 44 -112 46
-65 0 12 2 31 4 42 8 47 12 134 6 142 -3 5 -38 9 -78 9 -39 -1 -69 -3 -67 -6z"/>
<path d="M1930 1476 c-74 -15 -96 -29 -110 -72 -21 -63 11 -92 145 -134 111
-35 178 -84 190 -141 8 -34 2 -45 -17 -33 -7 5 -44 18 -83 30 -61 19 -72 25
-91 60 -29 51 -61 74 -113 81 l-43 6 3 -119 c2 -66 -1 -126 -6 -134 -12 -18
-35 -77 -42 -107 -3 -12 1 -39 8 -60 7 -21 11 -39 10 -41 -1 -1 5 -15 13 -30
26 -49 88 -99 151 -119 59 -20 61 -20 119 -1 101 33 155 88 181 188 9 36 9 53
-1 83 l-13 37 39 20 c46 23 60 45 60 92 0 44 -26 71 -87 93 -144 51 -166 62
-199 98 -34 37 -36 43 -36 102 -1 55 2 65 21 84 27 27 56 16 77 -27 65 -143
98 -183 164 -202 64 -18 61 -21 62 70 0 98 -2 111 -26 135 -13 13 -43 29 -67
35 -58 16 -239 19 -309 6z"/>
<path d="M2413 1418 c-2 -5 20 -8 49 -8 l53 0 -26 -23 c-14 -12 -28 -30 -32
-39 -3 -10 -7 -106 -7 -213 -1 -182 -3 -197 -21 -208 -10 -6 -19 -15 -19 -19
0 -4 104 -6 232 -5 l232 2 17 105 c9 58 19 126 22 153 3 26 9 52 12 57 3 6 0
10 -7 10 -13 0 -45 -66 -40 -82 1 -5 -2 -8 -8 -8 -5 0 -10 -4 -10 -9 0 -5 -14
-40 -32 -78 -18 -37 -33 -70 -34 -73 -1 -3 -7 -19 -15 -37 -12 -31 -14 -31
-75 -30 -35 0 -61 4 -58 9 3 4 -4 13 -16 20 -11 7 -20 18 -20 25 0 7 -4 13 -9
13 -11 0 -32 100 -35 173 l-3 57 89 0 89 0 -6 -40 c-3 -21 -8 -52 -10 -67 -4
-30 -12 -70 -21 -117 -4 -18 -2 -26 4 -22 10 6 24 62 36 146 3 19 8 46 11 60
4 14 9 43 12 65 3 22 10 45 15 52 5 7 5 14 -1 17 -5 4 -28 -13 -49 -36 -38
-41 -42 -42 -103 -43 -61 0 -63 1 -64 26 -1 14 4 48 11 74 6 27 10 55 7 62 -3
7 0 13 7 13 6 0 8 -5 4 -12 -4 -7 -3 -8 5 -4 6 4 9 11 7 15 -3 4 37 9 89 10
l94 2 11 -43 c6 -24 15 -52 19 -63 5 -11 14 -39 22 -63 14 -50 33 -50 36 -1 0
19 4 67 7 107 4 53 2 72 -7 72 -126 5 -460 3 -464 -2z m151 -378 c4 -24 2 -30
-4 -19 -5 8 -11 40 -14 70 -5 46 -4 49 4 19 5 -19 12 -51 14 -70z"/>
<path d="M1380 1399 c-72 -24 -126 -25 -135 -1 -6 16 -7 16 -20 -1 -17 -23 -1
-67 24 -68 9 0 23 -2 32 -4 10 -1 41 9 70 24 69 34 105 29 129 -17 30 -56 6
-135 -44 -144 -15 -3 -26 -1 -27 6 0 6 -2 20 -4 30 -14 73 -22 78 -123 80 -70
2 -87 -8 -48 -25 43 -20 61 -123 43 -244 -6 -42 -32 -100 -48 -110 -29 -18 -1
-26 84 -23 l92 3 2 130 c1 72 2 131 2 133 1 2 14 -4 30 -14 25 -15 71 -89 71
-115 0 -6 9 -32 21 -59 31 -73 103 -99 167 -59 27 17 36 42 33 93 -3 51 -19
82 -34 67 -6 -6 -28 -11 -48 -11 -30 0 -43 7 -64 33 -15 17 -44 42 -64 54
l-36 23 40 0 c104 1 185 45 185 100 0 58 -20 88 -75 115 -44 22 -65 26 -126
24 -41 -1 -99 -10 -129 -20z"/>
<path d="M944 1333 c-28 -30 -49 -43 -67 -43 -15 0 -27 -4 -27 -9 0 -4 23 -7
51 -6 l50 2 -5 -41 c-2 -22 -9 -63 -14 -91 -19 -92 -22 -115 -13 -115 5 0 17
44 27 98 10 53 19 102 20 107 7 27 24 138 22 140 -2 1 -21 -18 -44 -42z m23
-25 c-3 -8 -6 -5 -6 6 -1 11 2 17 5 13 3 -3 4 -12 1 -19z"/>
<path d="M1104 1255 c-7 -19 -14 -37 -14 -39 0 -3 -20 -47 -45 -97 -25 -51
-45 -97 -45 -104 0 -7 -7 -18 -15 -25 -25 -21 -17 -26 37 -25 57 0 59 3 74
100 3 22 10 58 15 80 5 22 11 54 14 70 2 17 6 40 9 53 8 35 -13 26 -30 -13z"/>
<path d="M910 968 c0 -4 11 -7 25 -6 28 3 24 11 -5 13 -11 1 -20 -2 -20 -7z"/>
<path d="M1385 639 c-88 -71 -161 -138 -163 -147 -5 -33 318 -185 350 -166 6
4 7 65 2 168 -4 88 -8 184 -9 211 -3 63 -3 65 -12 64 -5 0 -80 -59 -168 -130z"/>
</g>
</svg>
